<?xml version="1.0" ?><!DOCTYPE svg  PUBLIC '-//W3C//DTD SVG 1.1//EN'  'http://www.w3.org/Graphics/SVG/1.1/DTD/svg11.dtd'><svg height="512px" style="enable-background:new 0 0 512 512;" version="1.1" viewBox="0 0 512 512" width="512px" xml:space="preserve" xmlns="http://www.w3.org/2000/svg" xmlns:xlink="http://www.w3.org/1999/xlink"><g id="Ecology_x2C__tap_x2C__water"><g><path d="M195.94,243.667c43.469-43.481-6.95-99.109,67.789-147.733    c0,0-95.58-27.844-158.213,34.724C13.332,225.482,139.5,304.135,195.94,243.667L195.94,243.667z M394.098,309.717    c0,0,66.047-74.726,38.27-158.219c-17.931-52.573-50.246-64.107-72.844-64.716h-3.78c-45.853,1.172-80.027,51.343-64.235,94.307    C310.685,240.192,381.951,221.095,394.098,309.717L394.098,309.717z M298.458,285.352c-60.85-10.43-78.198,60.842-161.622,27.846    c0,0,32.997,93.82,118.212,109.541c9.394,1.676,17.938,2.449,25.705,2.48h0.601C386.562,425.061,372.901,296.604,298.458,285.352    L298.458,285.352z" style="fill-rule:evenodd;clip-rule:evenodd;fill:#6BCCE0;"/></g></g><g id="Layer_1"/></svg>